<svg width="742" height="560" viewBox="0 0 742 560" fill="none" xmlns="http://www.w3.org/2000/svg">
<g filter="url(#filter0_d_1_21)">
<g clip-path="url(#clip0_1_21)">
<path d="M169.285 33.7942L289.252 55.9709C317.492 61.1913 336.154 88.3166 330.933 116.557L302.555 270.074L131.454 238.445L169.285 33.7942Z" fill="black"/>
<path d="M318.752 61.4242L334.111 106.975L288.125 98.474L318.752 61.4242Z" fill="#645F5F"/>
<path d="M184.437 111.34L241.07 121.301L297.703 131.261M179.347 138.874L235.98 148.834L292.613 158.795M173.894 168.374L230.527 178.335L287.16 188.295" stroke="white"/>
</g>
</g>
<g filter="url(#filter1_d_1_21)">
<g clip-path="url(#clip1_1_21)">
<path d="M97 150.998L217.294 130.666C245.611 125.88 272.447 144.956 277.233 173.273L303.398 328.077L131.831 357.075L97 150.998Z" fill="#F1F1F1"/>
<path d="M246.874 125.666L276.93 163.182L230.818 170.976L246.874 125.666Z" fill="#D2D2D2"/>
<path d="M137.839 218.638L194.452 208.562L251.064 198.487M142.506 246.246L199.118 236.171L255.731 226.095M147.505 275.827L204.118 265.751L260.73 255.675" stroke="#170303"/>
</g>
</g>
<path d="M361.511 203.557C361.398 202.307 360.892 201.335 359.994 200.642C359.108 199.938 357.841 199.585 356.193 199.585C355.102 199.585 354.193 199.727 353.466 200.011C352.739 200.295 352.193 200.688 351.83 201.188C351.466 201.676 351.278 202.239 351.267 202.875C351.244 203.398 351.347 203.858 351.574 204.256C351.813 204.653 352.153 205.006 352.597 205.312C353.051 205.608 353.597 205.869 354.233 206.097C354.869 206.324 355.585 206.523 356.381 206.693L359.381 207.375C361.108 207.75 362.631 208.25 363.949 208.875C365.278 209.5 366.392 210.244 367.29 211.108C368.199 211.972 368.886 212.966 369.352 214.091C369.818 215.216 370.057 216.477 370.068 217.875C370.057 220.08 369.5 221.972 368.398 223.551C367.295 225.131 365.71 226.341 363.642 227.182C361.585 228.023 359.102 228.443 356.193 228.443C353.273 228.443 350.727 228.006 348.557 227.131C346.386 226.256 344.699 224.926 343.494 223.142C342.29 221.358 341.67 219.102 341.636 216.375H349.716C349.784 217.5 350.085 218.438 350.619 219.188C351.153 219.938 351.886 220.506 352.818 220.892C353.761 221.278 354.852 221.472 356.091 221.472C357.227 221.472 358.193 221.318 358.989 221.011C359.795 220.705 360.415 220.278 360.847 219.733C361.278 219.187 361.5 218.562 361.511 217.858C361.5 217.199 361.295 216.636 360.898 216.17C360.5 215.693 359.886 215.284 359.057 214.943C358.239 214.591 357.193 214.267 355.92 213.972L352.273 213.119C349.25 212.426 346.869 211.307 345.131 209.761C343.392 208.205 342.528 206.102 342.54 203.455C342.528 201.295 343.108 199.403 344.278 197.778C345.449 196.153 347.068 194.886 349.136 193.977C351.205 193.068 353.563 192.614 356.21 192.614C358.915 192.614 361.261 193.074 363.25 193.994C365.25 194.903 366.801 196.182 367.903 197.83C369.006 199.477 369.568 201.386 369.591 203.557H361.511ZM389.108 201.818V207.955H372.591V201.818H389.108ZM376.051 195.545H384.386V219.767C384.386 220.278 384.466 220.693 384.625 221.011C384.795 221.318 385.04 221.54 385.358 221.676C385.676 221.801 386.057 221.864 386.5 221.864C386.818 221.864 387.153 221.835 387.506 221.778C387.869 221.71 388.142 221.653 388.324 221.608L389.585 227.625C389.188 227.739 388.625 227.881 387.898 228.051C387.182 228.222 386.324 228.33 385.324 228.375C383.369 228.466 381.693 228.239 380.295 227.693C378.909 227.136 377.847 226.273 377.108 225.102C376.381 223.932 376.028 222.46 376.051 220.688V195.545ZM405.301 228.494C402.551 228.494 400.188 227.932 398.21 226.807C396.244 225.67 394.727 224.091 393.659 222.068C392.602 220.034 392.074 217.676 392.074 214.994C392.074 212.301 392.602 209.943 393.659 207.92C394.727 205.886 396.244 204.307 398.21 203.182C400.188 202.045 402.551 201.477 405.301 201.477C408.051 201.477 410.409 202.045 412.375 203.182C414.352 204.307 415.869 205.886 416.926 207.92C417.994 209.943 418.528 212.301 418.528 214.994C418.528 217.676 417.994 220.034 416.926 222.068C415.869 224.091 414.352 225.67 412.375 226.807C410.409 227.932 408.051 228.494 405.301 228.494ZM405.352 222.205C406.352 222.205 407.199 221.898 407.892 221.284C408.585 220.67 409.114 219.818 409.477 218.727C409.852 217.636 410.04 216.375 410.04 214.943C410.04 213.489 409.852 212.216 409.477 211.125C409.114 210.034 408.585 209.182 407.892 208.568C407.199 207.955 406.352 207.648 405.352 207.648C404.318 207.648 403.443 207.955 402.727 208.568C402.023 209.182 401.483 210.034 401.108 211.125C400.744 212.216 400.562 213.489 400.562 214.943C400.562 216.375 400.744 217.636 401.108 218.727C401.483 219.818 402.023 220.67 402.727 221.284C403.443 221.898 404.318 222.205 405.352 222.205ZM422.798 228V201.818H430.895V206.591H431.168C431.645 204.864 432.423 203.58 433.503 202.739C434.582 201.886 435.838 201.46 437.27 201.46C437.656 201.46 438.054 201.489 438.463 201.545C438.872 201.591 439.253 201.665 439.605 201.767V209.011C439.207 208.875 438.685 208.767 438.037 208.688C437.401 208.608 436.832 208.568 436.332 208.568C435.344 208.568 434.452 208.79 433.656 209.233C432.872 209.665 432.253 210.273 431.798 211.057C431.355 211.83 431.134 212.739 431.134 213.784V228H422.798ZM453.881 228.494C451.142 228.494 448.778 227.955 446.79 226.875C444.813 225.784 443.29 224.233 442.222 222.222C441.165 220.199 440.636 217.795 440.636 215.011C440.636 212.307 441.17 209.943 442.239 207.92C443.307 205.886 444.812 204.307 446.756 203.182C448.699 202.045 450.989 201.477 453.625 201.477C455.489 201.477 457.193 201.767 458.739 202.347C460.284 202.926 461.619 203.784 462.744 204.92C463.869 206.057 464.744 207.46 465.369 209.131C465.994 210.79 466.307 212.693 466.307 214.841V216.92H443.551V212.08H458.551C458.54 211.193 458.33 210.403 457.92 209.71C457.511 209.017 456.949 208.477 456.233 208.091C455.528 207.693 454.716 207.494 453.795 207.494C452.864 207.494 452.028 207.705 451.29 208.125C450.551 208.534 449.966 209.097 449.534 209.812C449.102 210.517 448.875 211.318 448.852 212.216V217.142C448.852 218.21 449.063 219.148 449.483 219.955C449.903 220.75 450.5 221.369 451.273 221.812C452.045 222.256 452.966 222.477 454.034 222.477C454.773 222.477 455.443 222.375 456.045 222.17C456.648 221.966 457.165 221.665 457.597 221.267C458.028 220.869 458.352 220.381 458.568 219.801L466.222 220.023C465.903 221.739 465.205 223.233 464.125 224.506C463.057 225.767 461.653 226.75 459.915 227.455C458.176 228.148 456.165 228.494 453.881 228.494Z" fill="black"/>
<path d="M483.467 228H470.564V193.091H483.45C487.007 193.091 490.07 193.79 492.638 195.188C495.217 196.574 497.206 198.574 498.604 201.188C500.001 203.79 500.7 206.903 500.7 210.528C500.7 214.165 500.001 217.29 498.604 219.903C497.217 222.517 495.234 224.523 492.655 225.92C490.075 227.307 487.013 228 483.467 228ZM479.001 220.807H483.143C485.098 220.807 486.751 220.477 488.104 219.818C489.467 219.148 490.496 218.062 491.189 216.562C491.893 215.051 492.246 213.04 492.246 210.528C492.246 208.017 491.893 206.017 491.189 204.528C490.484 203.028 489.445 201.949 488.07 201.29C486.706 200.619 485.024 200.284 483.024 200.284H479.001V220.807ZM517.848 228.494C515.098 228.494 512.734 227.932 510.757 226.807C508.791 225.67 507.274 224.091 506.206 222.068C505.149 220.034 504.621 217.676 504.621 214.994C504.621 212.301 505.149 209.943 506.206 207.92C507.274 205.886 508.791 204.307 510.757 203.182C512.734 202.045 515.098 201.477 517.848 201.477C520.598 201.477 522.956 202.045 524.922 203.182C526.899 204.307 528.416 205.886 529.473 207.92C530.541 209.943 531.075 212.301 531.075 214.994C531.075 217.676 530.541 220.034 529.473 222.068C528.416 224.091 526.899 225.67 524.922 226.807C522.956 227.932 520.598 228.494 517.848 228.494ZM517.899 222.205C518.899 222.205 519.746 221.898 520.439 221.284C521.132 220.67 521.661 219.818 522.024 218.727C522.399 217.636 522.587 216.375 522.587 214.943C522.587 213.489 522.399 212.216 522.024 211.125C521.661 210.034 521.132 209.182 520.439 208.568C519.746 207.955 518.899 207.648 517.899 207.648C516.865 207.648 515.99 207.955 515.274 208.568C514.57 209.182 514.03 210.034 513.655 211.125C513.291 212.216 513.109 213.489 513.109 214.943C513.109 216.375 513.291 217.636 513.655 218.727C514.03 219.818 514.57 220.67 515.274 221.284C515.99 221.898 516.865 222.205 517.899 222.205ZM547.567 228.494C544.805 228.494 542.436 227.926 540.459 226.79C538.493 225.653 536.982 224.074 535.925 222.051C534.868 220.017 534.339 217.665 534.339 214.994C534.339 212.312 534.868 209.96 535.925 207.938C536.993 205.903 538.51 204.318 540.476 203.182C542.453 202.045 544.811 201.477 547.55 201.477C549.97 201.477 552.078 201.915 553.874 202.79C555.68 203.665 557.089 204.903 558.101 206.506C559.124 208.097 559.663 209.966 559.72 212.114H551.93C551.771 210.773 551.317 209.722 550.567 208.96C549.828 208.199 548.862 207.818 547.669 207.818C546.703 207.818 545.857 208.091 545.129 208.636C544.402 209.17 543.834 209.966 543.425 211.023C543.027 212.068 542.828 213.364 542.828 214.909C542.828 216.455 543.027 217.761 543.425 218.83C543.834 219.886 544.402 220.687 545.129 221.233C545.857 221.767 546.703 222.034 547.669 222.034C548.442 222.034 549.124 221.869 549.714 221.54C550.317 221.21 550.811 220.727 551.197 220.091C551.584 219.443 551.828 218.659 551.93 217.739H559.72C559.641 219.898 559.101 221.784 558.101 223.398C557.112 225.011 555.72 226.267 553.925 227.165C552.141 228.051 550.021 228.494 547.567 228.494Z" fill="#5E5C5C"/>
<defs>
<filter id="filter0_d_1_21" x="119.454" y="25.7942" width="232.932" height="260.279" filterUnits="userSpaceOnUse" color-interpolation-filters="sRGB">
<feFlood flood-opacity="0" result="BackgroundImageFix"/>
<feColorMatrix in="SourceAlpha" type="matrix" values="0 0 0 0 0 0 0 0 0 0 0 0 0 0 0 0 0 0 127 0" result="hardAlpha"/>
<feOffset dy="4"/>
<feGaussianBlur stdDeviation="6"/>
<feComposite in2="hardAlpha" operator="out"/>
<feColorMatrix type="matrix" values="0 0 0 0 0 0 0 0 0 0 0 0 0 0 0 0 0 0 0.4 0"/>
<feBlend mode="normal" in2="BackgroundImageFix" result="effect1_dropShadow_1_21"/>
<feBlend mode="normal" in="SourceGraphic" in2="effect1_dropShadow_1_21" result="shape"/>
</filter>
<filter id="filter1_d_1_21" x="89" y="118" width="222.398" height="251.075" filterUnits="userSpaceOnUse" color-interpolation-filters="sRGB">
<feFlood flood-opacity="0" result="BackgroundImageFix"/>
<feColorMatrix in="SourceAlpha" type="matrix" values="0 0 0 0 0 0 0 0 0 0 0 0 0 0 0 0 0 0 127 0" result="hardAlpha"/>
<feOffset dy="4"/>
<feGaussianBlur stdDeviation="4"/>
<feComposite in2="hardAlpha" operator="out"/>
<feColorMatrix type="matrix" values="0 0 0 0 0 0 0 0 0 0 0 0 0 0 0 0 0 0 0.25 0"/>
<feBlend mode="normal" in2="BackgroundImageFix" result="effect1_dropShadow_1_21"/>
<feBlend mode="normal" in="SourceGraphic" in2="effect1_dropShadow_1_21" result="shape"/>
</filter>
<clipPath id="clip0_1_21">
<path d="M169.285 33.7942L289.252 55.9709C317.492 61.1913 336.154 88.3166 330.933 116.557L302.555 270.074L131.454 238.445L169.285 33.7942Z" fill="white"/>
</clipPath>
<clipPath id="clip1_1_21">
<path d="M97 150.998L217.294 130.666C245.611 125.88 272.447 144.956 277.233 173.273L303.398 328.077L131.831 357.075L97 150.998Z" fill="white"/>
</clipPath>
</defs>
</svg>
